<?xml version="1.0" encoding="UTF-8"?>
<svg version="1.1" xmlns="http://www.w3.org/2000/svg" viewBox="0 0 15.9375 15.9453">
  <!-- Circle ring (same as original) -->
  <path d="M7.96875 15.9375C12.3281 15.9375 15.9375 12.3203 15.9375 7.96875C15.9375 3.60938 12.3203 0 7.96094 0C3.60938 0 0 3.60938 0 7.96875C0 12.3203 3.61719 15.9375 7.96875 15.9375ZM7.96875 14.6094C4.28125 14.6094 1.33594 11.6562 1.33594 7.96875C1.33594 4.28125 4.27344 1.32812 7.96094 1.32812C11.6484 1.32812 14.6094 4.28125 14.6094 7.96875C14.6094 11.6562 11.6562 14.6094 7.96875 14.6094Z"/>
  <!-- R: vertical stem -->
  <path d="M3.8 4H5.2V12H3.8Z"/>
  <!-- R: top arch bowl (outer minus inner counter via evenodd) -->
  <path fill-rule="evenodd" d="M5.2 4H8.4C10.6 4 11.4 5.1 11.4 6.25C11.4 7.4 10.6 8.5 8.4 8.5H5.2V4ZM5.2 5.3V7.2H8.1C9.4 7.2 9.9 6.8 9.9 6.25C9.9 5.7 9.4 5.3 8.1 5.3H5.2Z"/>
  <!-- R: diagonal leg -->
  <path d="M7.5 8.5L11.2 12H9.6L6.2 8.5H7.5Z"/>
</svg>
